<?xml version="1.0" encoding="UTF-8" standalone="no"?><!DOCTYPE svg PUBLIC "-//W3C//DTD SVG 1.1//EN" "http://www.w3.org/Graphics/SVG/1.1/DTD/svg11.dtd"><svg width="100%" height="100%" viewBox="0 0 584 138" version="1.1" xmlns="http://www.w3.org/2000/svg" xmlns:xlink="http://www.w3.org/1999/xlink" xml:space="preserve" xmlns:serif="http://www.serif.com/" style="fill-rule:evenodd;clip-rule:evenodd;"><path d="M112,76.667c0,-22.075 -17.925,-40 -40,-40l-32,-0c-22.075,-0 -40,17.925 -40,40c0,22.075 17.925,40 40,40l32,-0c22.075,-0 40,-17.925 40,-40Z" style="fill:#f6b141;"/><path d="M145.583,56.667c0,-16.33 -13.254,-29.584 -29.583,-29.584l-28,0c-16.329,0 -29.583,13.254 -29.583,29.584c-0,16.329 13.254,29.583 29.583,29.583l28,0c16.329,0 29.583,-13.254 29.583,-29.583Z" style="fill:none;stroke:#f6b141;stroke-width:20.83px;"/><g><text x="189.614px" y="102.153px" style="font-family:'ArialMT', 'Arial', sans-serif;font-size:109.442px;">Hyun</text></g></svg>